# xmcd
#
# Track frame offsets:
#	150
#	14846
#	25020
#	36477
#	49933
#	66581
#	76942
#	90852
#	100958
#	115209
#	128071
#	145326
#
# Disc length: 2187 seconds
#
# Revision: 0
# Processed by: cddbd v1.5.2PL0 Copyright (c) Steve Scherf et al.
# Submitted via: EasyCDDAExtractor 5.0.2.1
#
DISCID=a308890c
DTITLE=Wild Ox Moan
DYEAR=2008
DGENRE=Blues
TTITLE0=Lord
TTITLE1=Sister blue
TTITLE2=When you got a good friend
TTITLE3=Tangled up in dark blue
TTITLE4=Roses for the pain
TTITLE5=Higher ground
TTITLE6=Bottles broken damage done
TTITLE7=Mixed emotions
TTITLE8=Since you're away
TTITLE9=Lay this burden down
TTITLE10=Till the tide turns
TTITLE11=Wish you well
EXTD=
EXTT0=
EXTT1=
EXTT2=
EXTT3=
EXTT4=
EXTT5=
EXTT6=
EXTT7=
EXTT8=
EXTT9=
EXTT10=
EXTT11=
PLAYORDER=
